<svg preserveAspectRatio="none" width="100%" height="100%" overflow="visible" style="display: block;" viewBox="0 0 135.817 53.1424" fill="none" xmlns="http://www.w3.org/2000/svg">
<g id="g14">
<g id="g20">
<path id="path22" d="M63.7884 45.8389H69.9669V43.1807H70.0443C71.2056 45.1658 73.8267 46.3995 76.1484 46.3995C82.6294 46.3995 83.1528 41.6807 83.1528 38.8718V26.3992H76.7864V35.8006C76.7864 38.4599 77.0858 41.1573 73.6037 41.1573C71.2056 41.1573 70.1558 39.134 70.1558 36.9991V26.3992H63.7884V45.8389Z" fill="var(--fill-0, white)" fill-opacity="0.8"/>
</g>
<g id="g24">
<path id="path26" d="M91.5361 32.7334C91.5361 31.7589 91.95 31.0476 92.5859 30.5594C93.1847 30.1113 94.0457 29.8863 94.9448 29.8863C96.1805 29.8863 97.9407 30.4117 97.9407 31.9468C97.9407 33.4437 95.9565 33.7441 94.8323 34.0073C90.8238 35.017 85.8066 35.1295 85.8066 40.3737C85.8066 45.0563 90.861 46.3292 94.6836 46.3292C98.9533 46.3292 103.409 45.0935 103.635 40.0371H97.7538C97.7538 40.8609 97.4544 41.3843 96.93 41.7219C96.4046 42.0595 95.6963 42.2102 94.9067 42.2102C93.8598 42.2102 92.174 42.0966 92.174 40.7484C92.174 38.9119 96.4437 38.5764 99.3652 37.9394C103.297 37.1518 104.31 34.3047 104.31 32.6962C104.31 27.4882 99.3652 25.7653 94.982 25.7653C90.3767 25.7653 85.6549 27.3024 85.4691 32.7334H91.5361Z" fill="var(--fill-0, white)" fill-opacity="0.8"/>
</g>
<g id="g28">
<path id="path30" d="M115.916 30.743C118.875 30.743 119.809 33.6645 119.809 36.1369C119.809 38.6093 118.875 41.568 115.916 41.568C112.955 41.568 112.056 38.6093 112.056 36.1369C112.056 33.6645 112.955 30.743 115.916 30.743ZM115.916 46.4374C121.944 46.4374 126.176 41.9799 126.176 36.1369C126.176 30.2949 121.944 25.8735 115.916 25.8735C109.884 25.8735 105.689 30.2949 105.689 36.1369C105.689 41.9799 109.884 46.4374 115.916 46.4374Z" fill="var(--fill-0, white)" fill-opacity="0.8"/>
</g>
<path id="path32" d="M128.19 53.1424H134.557V26.3999H128.19V53.1424Z" fill="var(--fill-0, white)" fill-opacity="0.8"/>
<g id="g34">
<path id="path36" d="M15.6698 53.1422H22.9494V43.2485H31.3693V53.1422H38.5936V26.3997H31.3693V36.9464H22.9494V26.3997H15.6698V53.1422Z" fill="var(--fill-0, white)" fill-opacity="0.8"/>
</g>
<path id="path38" d="M8.31338 53.1424H0V43.6455H8.31338V53.1424Z" fill="var(--fill-0, #0082C7)"/>
<path id="path40" d="M8.31338 36.2383H0V26.3999H8.31338V36.2383Z" fill="var(--fill-0, #00A85A)"/>
<g id="g42">
<path id="path44" d="M50.0475 29.7706C53.0825 29.7706 54.0931 31.4915 53.9445 35.5C53.0453 34.9374 51.3977 34.8249 50.0103 34.4502C48.5877 34.1136 47.3902 33.5149 47.3902 31.9798C47.3902 30.4065 48.6269 29.7706 50.0475 29.7706ZM41.8104 39.8441C41.922 42.3918 43.1225 44.0384 44.8414 45.0501C46.5664 46.0226 48.8128 46.3973 51.023 46.3973C55.6302 46.3973 60.0858 45.3856 60.0858 39.8802V31.38C60.0858 29.7324 60.0858 27.9341 60.8353 26.4H54.4307C54.2057 26.9978 54.1303 27.5976 54.056 28.2335C52.4104 26.5115 49.9751 25.8384 47.6514 25.8384C43.9453 25.8384 41.0238 27.7101 41.0238 31.7176C41.0238 38.0468 47.9126 37.5595 52.333 38.4577C53.418 38.6827 54.0188 39.0574 54.0188 40.257C54.0188 41.7157 52.2587 42.2773 50.9466 42.2773C49.1865 42.2773 48.0653 41.4907 47.7659 39.8441H41.8104Z" fill="var(--fill-0, white)" fill-opacity="0.8"/>
</g>
<g id="g46">
<path id="path48" d="M132.892 8.77716H124.705V7.68813H132.892V3.15722H134.193L134.192 13.1081H124.052V12.003H132.892V8.77716Z" fill="var(--fill-0, white)" fill-opacity="0.8"/>
</g>
<g id="g50">
<path id="path52" d="M89.2442 9.43056H87.9362V7.82515H81.7908V6.7321H95.2389V7.82515H89.2442V9.43056Z" fill="var(--fill-0, white)" fill-opacity="0.8"/>
</g>
<g id="g54">
<path id="path56" d="M83.3879 4.51529H92.1434V3.39713H83.3879V2.61151V0.377198V0.0888673H93.4514V1.18593H84.695V2.30208H93.4514V2.32519V3.39713V4.51529V4.5605V5.61035H83.3879V4.51529Z" fill="var(--fill-0, white)" fill-opacity="0.8"/>
</g>
<g id="g58">
<path id="path60" d="M78.704 13.4154H77.395V3.49664H78.704V8.342H80.9173V9.43705H78.704V13.4154Z" fill="var(--fill-0, white)" fill-opacity="0.8"/>
</g>
<g id="g62">
<path id="path64" d="M70.4713 3.49702H69.1623V1.18335V1.04672V0.0862831H78.7023V1.18335H70.4713V3.49702Z" fill="var(--fill-0, white)" fill-opacity="0.8"/>
</g>
<g id="g66">
<path id="path68" d="M68.948 7.3174C68.948 8.5963 70.2882 9.08355 71.9388 9.08355C73.5894 9.08355 74.9286 8.5963 74.9286 7.3174C74.9286 6.04151 73.5894 5.55527 71.9388 5.55527C70.2882 5.55527 68.948 6.04151 68.948 7.3174ZM76.3271 7.3174C76.3271 9.22118 74.363 10.1806 71.9388 10.1806C69.5136 10.1806 67.5495 9.22118 67.5495 7.3174C67.5495 5.41763 69.5136 4.4582 71.9388 4.4582C74.363 4.4582 76.3271 5.41763 76.3271 7.3174Z" fill="var(--fill-0, white)" fill-opacity="0.8"/>
</g>
<path id="path70" d="M76.136 11.8226H67.7402V10.7275H76.136V11.8226Z" fill="var(--fill-0, white)" fill-opacity="0.8"/>
<path id="path72" d="M73.8848 13.4653H69.9918V12.3703H73.8848V13.4653Z" fill="var(--fill-0, white)" fill-opacity="0.8"/>
<g id="g74">
<path id="path76" d="M88.5882 11.8539C90.272 9.3584 94.4654 8.90631 94.4654 8.90631L94.6713 9.99735C89.4462 10.6524 89.2664 13.5216 89.2664 13.9124C89.2674 13.9295 89.2724 13.9436 89.2724 13.9586H89.2674H87.9081H87.9021C87.9041 13.9436 87.9081 13.9295 87.9081 13.9144C87.9081 13.5216 87.7293 10.6524 82.5051 9.99735L82.7111 8.90631C82.7111 8.90631 86.9034 9.3584 88.5882 11.8539Z" fill="var(--fill-0, white)" fill-opacity="0.8"/>
</g>
<path id="path78" d="M120.35 0.0373011H121.65V13.3759H120.35V0.0373011Z" fill="var(--fill-0, white)" fill-opacity="0.8"/>
<g id="g80">
<path id="path82" d="M118.031 8.90087H115.387V7.81184H118.031V4.55079H112.044V11.7108H116.429V12.8079H110.735V3.39647H118.031V0.0379664H119.331V13.3765H118.031V8.90087Z" fill="var(--fill-0, white)" fill-opacity="0.8"/>
</g>
<g id="g84">
<path id="path86" d="M129.121 1.78204V6.17531H127.813V1.78204H122.945V0.687989H135.816V1.78204H129.121Z" fill="var(--fill-0, white)" fill-opacity="0.8"/>
</g>
<path id="path88" d="M98.8056 2.93157H106.648V1.11417H98.8056V2.93157ZM97.5016 4.66401e-05H107.994V4.02662H97.5016V4.66401e-05Z" fill="var(--fill-0, white)" fill-opacity="0.8"/>
<path id="path90" d="M108.166 12.0818H97.3259V11.0561H108.166V12.0818Z" fill="var(--fill-0, white)" fill-opacity="0.8"/>
<path id="path92" d="M105.323 13.7044H100.17V12.6586H105.323V13.7044Z" fill="var(--fill-0, white)" fill-opacity="0.8"/>
<g id="g94">
<path id="path96" d="M98.8721 8.61655C98.8721 9.33889 100.203 9.61114 102.747 9.61114C105.325 9.61114 106.622 9.33889 106.622 8.61655C106.622 7.89422 104.992 7.61995 102.747 7.61995C100.298 7.61995 98.8721 7.89422 98.8721 8.61655ZM103.478 6.5912C106.721 6.6776 108.052 7.35473 108.052 8.61253C108.052 9.96076 106.392 10.6439 102.746 10.6439C99.1675 10.6439 97.4405 9.96076 97.4405 8.61253C97.4405 7.33564 98.8138 6.65852 102.168 6.5892V5.88294H96.0159V4.78587H109.477V5.88294H103.478V6.5912Z" fill="var(--fill-0, white)" fill-opacity="0.8"/>
</g>
</g>
</svg>
