<svg width="90" height="26" viewBox="0 0 90 26" fill="none" xmlns="http://www.w3.org/2000/svg">
<path d="M42.541 8.85077H46.2263V10.4364H46.2725C46.9652 9.25226 48.5286 8.51639 49.9135 8.51639C53.7791 8.51639 54.0913 11.331 54.0913 13.0065V20.446H50.294V14.8384C50.294 13.2522 50.4725 11.6432 48.3956 11.6432C46.9652 11.6432 46.339 12.8501 46.339 14.1235V20.446H42.541V8.85077Z" fill="#5E5F60"/>
<path d="M59.0912 16.6677C59.0912 17.2489 59.3381 17.6732 59.7174 17.9644C60.0746 18.2317 60.5881 18.3659 61.1244 18.3659C61.8615 18.3659 62.9114 18.0525 62.9114 17.1369C62.9114 16.244 61.7279 16.0648 61.0573 15.9078C58.6664 15.3056 55.6738 15.2385 55.6738 12.1104C55.6738 9.31739 58.6885 8.55815 60.9686 8.55815C63.5154 8.55815 66.173 9.29522 66.3079 12.3112H62.7999C62.7999 11.8198 62.6213 11.5076 62.3085 11.3063C61.9951 11.1049 61.5727 11.015 61.1017 11.015C60.4773 11.015 59.4717 11.0827 59.4717 11.8869C59.4717 12.9823 62.0185 13.1825 63.7611 13.5624C66.1065 14.0322 66.7105 15.7304 66.7105 16.6898C66.7105 19.7963 63.7611 20.824 61.1466 20.824C58.3997 20.824 55.5833 19.9071 55.4724 16.6677H59.0912Z" fill="#5E5F60"/>
<path d="M73.6352 17.855C75.3999 17.855 75.9572 16.1124 75.9572 14.6377C75.9572 13.163 75.3999 11.3982 73.6352 11.3982C71.8692 11.3982 71.3329 13.163 71.3329 14.6377C71.3329 16.1124 71.8692 17.855 73.6352 17.855ZM73.6352 8.4937C77.2306 8.4937 79.7552 11.1525 79.7552 14.6377C79.7552 18.1223 77.2306 20.7595 73.6352 20.7595C70.0373 20.7595 67.5349 18.1223 67.5349 14.6377C67.5349 11.1525 70.0373 8.4937 73.6352 8.4937Z" fill="#5E5F60"/>
<path d="M80.9556 4.4944H84.7535V20.4456H80.9556V4.4944Z" fill="#5E5F60"/>
<path d="M13.8411 4.49441H18.1832V10.3957H23.2054V4.49441H27.5145V20.4456H23.2054V14.1547H18.1832V20.4456H13.8411V4.49441Z" fill="#5E5F60"/>
<path d="M9.45309 4.49433H4.49438V10.1589H9.45309V4.49433Z" fill="#0082C7"/>
<path d="M9.45309 14.5772H4.49438V20.4456H9.45309V14.5772Z" fill="#00A85A"/>
<path d="M34.3465 18.4351C36.1568 18.4351 36.7596 17.4086 36.6709 15.0176C36.1346 15.3532 35.1519 15.4203 34.3243 15.6438C33.4758 15.8446 32.7615 16.2017 32.7615 17.1174C32.7615 18.0558 33.4992 18.4351 34.3465 18.4351ZM29.4333 12.4265C29.4998 10.9069 30.2159 9.9247 31.2412 9.32127C32.2701 8.74121 33.61 8.51769 34.9283 8.51769C37.6764 8.51769 40.3341 9.12112 40.3341 12.405V17.4751C40.3341 18.4579 40.3341 19.5305 40.7811 20.4455H36.961C36.8267 20.089 36.7818 19.7312 36.7374 19.3519C35.7559 20.379 34.3033 20.7805 32.9173 20.7805C30.7067 20.7805 28.9641 19.6641 28.9641 17.2738C28.9641 13.4986 33.0731 13.7892 35.7097 13.2535C36.3569 13.1192 36.7153 12.8957 36.7153 12.1802C36.7153 11.3101 35.6654 10.9752 34.8828 10.9752C33.8329 10.9752 33.1642 11.4444 32.9856 12.4265H29.4333Z" fill="#5E5F60"/>
</svg>
